<?xml version="1.0" encoding="utf-8"?>
<svg width="128px" height="128px" viewBox="0 0 128 128" version="1.1" xmlns:xlink="http://www.w3.org/1999/xlink" xmlns="http://www.w3.org/2000/svg">
  <defs>
    <path d="M0 0L128 0L128 128L0 128L0 0Z" id="path_1" />
    <clipPath id="mask_1">
      <use xlink:href="#path_1" />
    </clipPath>
  </defs>
  <g id="Drupal-icon">
    <path d="M0 0L128 0L128 128L0 128L0 0Z" id="Background" fill="none" fill-rule="evenodd" stroke="none" />
    <g clip-path="url(#mask_1)">
      <path d="M64 122.667C36 122.667 13.3334 100.267 13.3334 73.0667C13.3334 51.4667 27.4667 32.2667 48.5334 25.8667C53.0667 24.2667 56.5334 14.4 57.3334 11.4667L58.6667 5.33337L62.1334 10.4C65.0667 14.9334 70.6667 23.7334 74.4 24.2667C97.6 29.0667 114.667 49.6 114.667 73.0667C114.667 100.267 92 122.667 64 122.667L64 122.667Z" id="Shape" fill="#039BE5" fill-rule="evenodd" stroke="none" />
      <path d="M78.6667 93.8666C80.2667 93.8666 82.1333 93.8666 83.4667 94.6666C84.8 95.4666 85.6 97.3333 85.8667 98.4C86.4 99.4666 85.8667 100 85.0667 100.533C84.2667 101.067 84.2667 100.8 83.4667 99.4666C82.6667 98.1333 82.1333 96.8 78.4 96.8C74.6667 96.8 73.6 98.1333 71.7333 99.4666C69.8667 100.8 69.3333 101.333 68.8 100.533C68.2667 99.7333 68.2667 98.9333 69.6 97.8666C70.6667 96.8 72.5333 95.2 74.4 94.4C76 93.6 77.0667 93.8666 78.6667 93.8666L78.6667 93.8666L78.6667 93.8666ZM61.0668 105.6C63.2002 107.2 66.4002 108.534 73.0668 108.534C79.7335 108.534 84.5335 106.667 86.6668 105.067C87.7335 104.267 88.0002 105.067 88.2668 105.334C88.2668 105.867 88.5335 106.4 87.7335 107.2C87.2002 107.734 82.4002 110.934 76.5335 111.467C70.9335 112 63.2002 112.267 58.4002 108.267C57.6002 107.467 57.8668 106.4 58.4002 106.134C58.9335 105.6 59.4668 105.334 60.0002 105.334C60.5335 105.334 60.8002 105.334 61.0668 105.6L61.0668 105.6L61.0668 105.6ZM37.3334 84.2667C37.3334 76.5334 45.0667 69.3334 54.9334 69.3334C67.2 69.3334 76 80.8 82.1334 80.5334C87.4667 80.5334 97.6 70.6667 102.667 70.6667C108 70.6667 109.333 75.7334 109.333 78.9334C109.333 81.8667 108.267 87.4667 105.6 90.9334C102.933 94.4 101.6 95.7334 98.4 95.4667C94.6667 95.2 86.9334 84.2667 82.1334 84C76 83.7334 62.6667 96 52.2667 96C45.8667 96 44 95.2 41.8667 93.8667C38.9334 91.7334 37.3334 88.5334 37.3334 84.2667L37.3334 84.2667L37.3334 84.2667Z" id="Shape" fill="#FFFFFF" fill-rule="evenodd" stroke="none" />
    </g>
  </g>
</svg>