<?xml version="1.0" encoding="utf-8"?>
<svg width="132px" height="132px" viewBox="0 0 132 132" version="1.1" xmlns:xlink="http://www.w3.org/1999/xlink" xmlns="http://www.w3.org/2000/svg">
  <defs>
    <path d="M0 0L132 -1.73015e-08L132 132L1.73015e-08 132L0 0Z" id="path_1" />
    <clipPath id="mask_1">
      <use xlink:href="#path_1" />
    </clipPath>
  </defs>
  <g id="Hp-icon">
    <path d="M0 0L132 -1.73015e-08L132 132L1.73015e-08 132L0 0Z" id="Background" fill="none" fill-rule="evenodd" stroke="none" />
    <g clip-path="url(#mask_1)">
      <path d="M65.999 11C35.6234 11 10.999 35.6243 10.999 65.9999C10.9989 96.3755 35.6231 121 65.9987 121C96.3743 121 120.999 96.3759 120.999 66.0003C120.999 35.6247 96.3748 11.0002 65.9993 11L65.999 11Z" id="Shape" fill="#FFFFFF" fill-rule="evenodd" stroke="none" />
      <path d="M65.999 120.992C65.4517 120.992 64.206 121.008 63.6615 120.992L74.6615 90.7445L90.1302 90.7445C92.8445 90.7445 95.8255 88.6572 96.755 86.108L109.812 51.2188C111.806 45.7325 108.665 41.2473 102.83 41.2473L81.3687 41.2473L63.4442 91.454L63.4387 91.454L53.2307 119.499C29.0115 113.743 10.999 91.9737 10.999 65.9973C10.999 40.7688 27.9885 19.5085 51.149 13.0295L40.6165 41.976L40.6137 41.976L22.4115 90.7445L34.0687 90.7445L49.4027 49.4972L58.1615 49.4972L42.8275 90.7445L53.6047 90.7472L68.5592 51.2188C70.5557 45.7325 67.4152 41.2473 61.5852 41.2473L52.6615 41.2473L63.5267 11.0578C64.3462 11.022 65.1712 11 65.999 11C96.3755 11 120.999 35.6208 120.999 65.9973C120.999 96.3737 96.3755 120.992 65.999 120.992L65.999 120.992ZM99.4117 49.4973L90.6529 49.4973L78.2532 82.4946L87.0119 82.4946L99.4117 49.4973L99.4117 49.4973Z" id="Shape" fill="#1976D2" fill-rule="evenodd" stroke="none" />
    </g>
  </g>
</svg>