<?xml version="1.0" encoding="utf-8"?>
<svg width="55px" height="55px" viewBox="0 0 55 55" version="1.1" xmlns:xlink="http://www.w3.org/1999/xlink" xmlns="http://www.w3.org/2000/svg">
  <defs>
    <filter filterUnits="userSpaceOnUse" color-interpolation-filters="sRGB" id="filter_1">
      <feFlood flood-opacity="0" result="BackgroundImageFix" />
      <feColorMatrix in="SourceAlpha" type="matrix" values="0 0 0 0 0 0 0 0 0 0 0 0 0 0 0 0 0 0 127 0" />
      <feOffset dx="3" dy="3" />
      <feGaussianBlur stdDeviation="3.5" />
      <feColorMatrix type="matrix" values="0 0 0 0 0.9098039 0 0 0 0 0.54509807 0 0 0 0 1 0 0 0 1 0" />
      <feBlend mode="normal" in2="BackgroundImageFix" result="effect0_dropShadow" />
      <feBlend mode="normal" in="SourceGraphic" in2="effect0_dropShadow" result="shape" />
    </filter>
    <path d="M0 0L31.25 0L31.25 31.25L0 31.25L0 0Z" id="path_1" />
    <clipPath id="mask_1">
      <use xlink:href="#path_1" />
    </clipPath>
  </defs>
  <g id="icon-Copy">
    <path d="M0 27.5C0 12.3122 12.3122 0 27.5 0C42.6878 0 55 12.3122 55 27.5C55 42.6878 42.6878 55 27.5 55C12.3122 55 0 42.6878 0 27.5Z" id="Ellipse" fill="#B260E1" fill-rule="evenodd" stroke="none" filter="url(#filter_1)" />
    <g id="Padlock-icon" transform="translate(11.875 11.875)">
      <path d="M0 0L31.25 0L31.25 31.25L0 31.25L0 0Z" id="Background" fill="none" fill-rule="evenodd" stroke="none" />
      <g clip-path="url(#mask_1)">
        <path d="M14.2383 -1.94454e-05C13.5034 -0.00246085 12.7539 0.10252 12.0117 0.332012C8.06396 1.5576 5.80567 5.79344 7.03125 9.74607L7.03125 9.78514C7.19238 10.2295 7.62451 11.6357 7.89063 12.5L5.625 12.5C4.56299 12.5 3.75 13.313 3.75 14.375L3.75 29.375C3.75 30.437 4.56299 31.25 5.625 31.25L25.625 31.25C26.687 31.25 27.5 30.437 27.5 29.375L27.5 14.375C27.5 13.313 26.687 12.5 25.625 12.5L9.21875 12.5C9.02588 11.8799 8.44482 10.0464 8.20313 9.37498L8.22266 9.37498C7.19971 6.07664 9.0625 2.56834 12.3633 1.54295C15.6567 0.52 19.1846 2.37303 20.2148 5.66404C20.2148 5.66648 20.2148 5.68113 20.2148 5.68357C20.3564 6.17918 21.0352 8.37889 21.0352 8.37889C21.0913 8.6035 21.2671 8.78172 21.4917 8.83543C21.7188 8.89158 21.9556 8.81834 22.1094 8.645C22.2632 8.46922 22.3096 8.22508 22.2266 8.00779C22.2266 8.00779 21.521 5.7324 21.4063 5.33201L21.4063 5.31248C20.4883 2.35105 17.876 0.339336 14.9609 0.0390431C14.7192 0.014629 14.4824 -1.94454e-05 14.2383 -1.94454e-05L14.2383 -1.94454e-05ZM15.625 18.75C16.687 18.75 17.5 19.563 17.5 20.625C17.5 21.1865 17.251 21.6797 16.875 21.9922L16.875 23.75C16.875 24.4385 16.3135 25 15.625 25C14.9365 25 14.375 24.4385 14.375 23.75L14.375 21.9922C13.999 21.6797 13.75 21.1865 13.75 20.625C13.75 19.563 14.563 18.75 15.625 18.75L15.625 18.75Z" id="Shape" fill="#FFFFFF" fill-rule="evenodd" stroke="none" />
      </g>
    </g>
  </g>
</svg>