<?xml version="1.0" encoding="utf-8"?>
<svg width="146px" height="146px" viewBox="0 0 146 146" version="1.1" xmlns:xlink="http://www.w3.org/1999/xlink" xmlns="http://www.w3.org/2000/svg">
  <defs>
    <path d="M0 0L146 0L146 146L0 146L0 0Z" id="path_1" />
    <clipPath id="mask_1">
      <use xlink:href="#path_1" />
    </clipPath>
  </defs>
  <g id="Behance-icon">
    <path d="M0 0L146 0L146 146L0 146L0 0Z" id="Background" fill="none" fill-rule="evenodd" stroke="none" />
    <g clip-path="url(#mask_1)">
      <path d="M30.4167 18.25C23.7155 18.25 18.25 23.7155 18.25 30.4167L18.25 115.583C18.25 122.285 23.7155 127.75 30.4167 127.75L115.583 127.75C122.285 127.75 127.75 122.285 127.75 115.583L127.75 30.4167C127.75 23.7155 122.285 18.25 115.583 18.25L30.4167 18.25ZM38.9714 46.7656L54.7501 46.7656C68.7465 46.7656 71.099 55.3678 71.099 60.8333C71.099 68.7464 65.6573 71.2415 64.4454 71.8594C65.6573 72.4772 71.8595 74.1406 71.8595 83.2656C72.4773 94.2204 65.6336 98.474 55.8907 98.474L38.9714 98.474L38.9714 46.7656ZM81.5547 46.7656L103.987 46.7656L103.987 52.849L81.5547 52.849L81.5547 46.7656ZM49.2371 55.3203L49.2371 68.0573L54.7501 68.0573C58.4096 68.0573 60.8334 66.8454 60.8334 61.974C60.8334 57.7204 59.0037 55.3203 54.7501 55.3203L49.2371 55.3203ZM94.8619 59.6927C103.369 59.6927 109.5 64.5166 109.5 78.5131L109.5 82.6954L88.7786 82.6954C88.7786 84.5251 88.8974 91.25 96.1926 91.25C101.064 91.25 103.345 88.85 104.557 87.6381L108.93 93.7214C108.312 94.3392 104.106 99.2344 96.1926 99.2344C87.0676 99.2344 79.6536 94.3392 79.6536 81.5547L79.6536 78.5131C79.6536 64.5166 86.9488 59.6927 94.8619 59.6927L94.8619 59.6927ZM93.7213 67.4869C91.8915 67.4869 88.2083 68.1761 88.2083 75.4713L98.4739 75.4713C98.4739 75.4713 99.8046 67.4869 93.7213 67.4869L93.7213 67.4869ZM49.2371 76.0416L49.2371 90.1093L55.8907 90.1093C59.5502 90.1093 61.4037 87.5192 61.4037 83.2656C62.0216 78.3942 60.3106 76.0416 56.6511 76.0416L49.2371 76.0416Z" id="Shape" fill="#FFFFFF" fill-rule="evenodd" stroke="none" />
    </g>
  </g>
</svg>