<?xml version="1.0" encoding="utf-8"?>
<svg width="55px" height="55px" viewBox="0 0 55 55" version="1.1" xmlns:xlink="http://www.w3.org/1999/xlink" xmlns="http://www.w3.org/2000/svg">
  <defs>
    <path d="M0 0L34 0L34 34L0 34L0 0Z" id="path_1" />
    <clipPath id="mask_1">
      <use xlink:href="#path_1" />
    </clipPath>
  </defs>
  <g id="icon-Copy-2">
    <path d="M0 27.5C0 12.3122 12.3122 0 27.5 0C42.6878 0 55 12.3122 55 27.5C55 42.6878 42.6878 55 27.5 55C12.3122 55 0 42.6878 0 27.5Z" id="Ellipse" fill="#F5AFE9" fill-rule="evenodd" stroke="none" />
    <g id="Settings-icon" transform="translate(10 10)">
      <path d="M0 0L34 0L34 34L0 34L0 0Z" id="Background" fill="none" fill-rule="evenodd" stroke="none" />
      <g clip-path="url(#mask_1)">
        <path d="M32.0688 14.4303L28.05 13.7734C27.8147 12.9669 27.4931 12.1917 27.0905 11.458L29.4365 8.11443C29.6263 7.84447 29.5936 7.47659 29.3604 7.24267L26.7159 4.59951C26.4799 4.36423 26.1086 4.33363 25.838 4.52879L22.5448 6.89587C21.8042 6.48651 21.0222 6.16147 20.211 5.92551L19.5099 1.92303C19.4528 1.59799 19.1706 1.35999 18.8401 1.35999L15.1001 1.35999C14.7669 1.35999 14.4827 1.60139 14.4289 1.93051L13.7789 5.91122C12.9629 6.14583 12.1795 6.46746 11.4417 6.87138L8.15731 4.52538C7.88599 4.33158 7.51675 4.36286 7.28079 4.59746L4.63763 7.24062C4.40439 7.47387 4.37175 7.84106 4.56147 8.11102L6.87279 11.4179C6.46139 12.1625 6.13363 12.9506 5.89495 13.7707L1.92987 14.4309C1.60211 14.4853 1.36139 14.7696 1.36139 15.1014L1.36139 18.8414C1.36139 19.1712 1.59803 19.4534 1.92239 19.5112L5.88747 20.2143C6.12479 21.0324 6.45255 21.8205 6.86531 22.5671L4.52543 25.84C4.33231 26.1099 4.36291 26.4805 4.59751 26.7165L7.24135 29.3624C7.47459 29.5956 7.84247 29.6283 8.11243 29.4385L11.424 27.1191C12.1673 27.5277 12.9527 27.8521 13.7666 28.0874L14.4303 32.0729C14.484 32.3999 14.7676 32.64 15.1001 32.64L18.8401 32.64C19.1699 32.64 19.4521 32.4033 19.5092 32.079L20.2198 28.0738C21.0351 27.8337 21.8165 27.5073 22.5522 27.098L25.8876 29.4379C26.1583 29.6289 26.5255 29.5956 26.7594 29.3624L29.4032 26.7165C29.6385 26.4805 29.6691 26.1086 29.4739 25.8379L27.0953 22.5352C27.4985 21.8008 27.8188 21.0242 28.0521 20.2177L32.0763 19.5112C32.402 19.4541 32.6387 19.1712 32.6387 18.8414L32.6387 15.1014C32.6393 14.7682 32.3979 14.484 32.0688 14.4303L32.0688 14.4303ZM17 21.76C14.3711 21.76 12.24 19.6289 12.24 17C12.24 14.3711 14.3711 12.24 17 12.24C19.6289 12.24 21.76 14.3711 21.76 17C21.76 19.6289 19.6289 21.76 17 21.76L17 21.76Z" id="Shape" fill="#750762" fill-rule="evenodd" stroke="none" />
      </g>
    </g>
  </g>
</svg>