<?xml version="1.0" encoding="utf-8"?>
<svg width="150px" height="150px" viewBox="0 0 150 150" version="1.1" xmlns:xlink="http://www.w3.org/1999/xlink" xmlns="http://www.w3.org/2000/svg">
  <defs>
    <linearGradient x1="0.4999984" y1="-5.8561563E-06" x2="0.4999984" y2="0.9999998" id="gradient_1">
      <stop offset="0" stop-color="#1A6DFF" />
      <stop offset="1" stop-color="#C822FF" />
    </linearGradient>
    <linearGradient x1="0.5" y1="-2.3841858E-07" x2="0.5" y2="1.0000001" id="gradient_2">
      <stop offset="0" stop-color="#6DC7FF" />
      <stop offset="1" stop-color="#E6ABFF" />
    </linearGradient>
    <path d="M0 0L150 0L150 150L0 150L0 0Z" id="path_1" />
    <clipPath id="mask_1">
      <use xlink:href="#path_1" />
    </clipPath>
  </defs>
  <g id="Dropbox-icon">
    <path d="M0 0L150 0L150 150L0 150L0 0Z" id="Background" fill="none" fill-rule="evenodd" stroke="none" />
    <g clip-path="url(#mask_1)">
      <path d="M115.219 60.0468L135.187 41.5546C135.726 41.0624 135.984 40.3593 135.937 39.6328C135.867 38.9062 135.469 38.2499 134.859 37.8749L101.555 16.7812C100.734 16.2421 99.6796 16.289 98.9062 16.8749L75.0234 34.7812L52.0546 16.8984C51.2812 16.289 50.203 16.2421 49.3593 16.7812L15.1405 38.8124C14.5077 39.2109 14.1093 39.8906 14.0624 40.6171C14.0155 41.3671 14.3202 42.0702 14.8827 42.5624L36.2577 60.9374L14.8827 79.3124C14.2968 79.8046 14.0155 80.5546 14.0624 81.3046C14.1327 82.0546 14.5546 82.7343 15.2108 83.1093L35.1562 94.8515L35.1562 110.625C35.1562 111.445 35.578 112.195 36.2577 112.617L56.2499 124.992L70.1483 133.594L73.7577 135.82C74.1562 136.055 74.578 136.172 74.9999 136.172C75.4218 136.172 75.8437 136.055 76.2187 135.82L113.719 112.852C114.422 112.43 114.844 111.68 114.844 110.859L114.844 95.0156L134.789 83.1093C135.422 82.7343 135.844 82.0781 135.914 81.3515C136.008 80.6484 135.75 79.9218 135.234 79.4062L115.219 60.0468L115.219 60.0468ZM100.43 21.5859L129.773 40.1953L111.492 57.0703L79.1952 37.5234L100.43 21.5859L100.43 21.5859ZM75.0468 40.5L107.414 60.0703L74.9999 81.3281L44.1093 60.9375L75.0468 40.5L75.0468 40.5ZM20.3202 41.0625L50.5077 21.6094L70.9921 37.5703L40.0311 58.0078L20.3202 41.0625L20.3202 41.0625ZM20.4139 80.7422L40.0311 63.8672L70.828 84.2109L70.5936 84.375L56.2499 94.4297L50.5077 98.4609L20.4139 80.7422L20.4139 80.7422ZM110.156 109.547L74.9999 131.086L56.2499 119.484L39.8436 109.312L39.8436 97.6172L49.4296 103.266C49.8046 103.477 50.203 103.594 50.6249 103.594C51.0936 103.594 51.5624 103.453 51.9608 103.172L56.2499 100.172L74.9999 87.0234L75.0233 87L98.5077 103.172C98.9061 103.453 99.3749 103.594 99.8436 103.594C100.266 103.594 100.664 103.477 101.039 103.266L110.156 97.8281L110.156 109.547L110.156 109.547ZM99.9374 98.4609L79.1952 84.1875L111.516 63L129.773 80.6484L99.9374 98.4609L99.9374 98.4609Z" id="Shape" fill="url(#gradient_1)" fill-rule="evenodd" stroke="none" />
      <path d="M110.156 97.8284L110.156 109.547L75 131.086L75 87.0237L75.0234 87.0002L98.5078 103.172C98.9062 103.453 99.375 103.594 99.8438 103.594C100.266 103.594 100.664 103.477 101.039 103.266L110.156 97.8284L110.156 97.8284Z" id="Shape" fill="url(#gradient_2)" fill-rule="evenodd" stroke="none" />
    </g>
  </g>
</svg>