<?xml version="1.0" encoding="utf-8"?>
<svg width="30px" height="30px" viewBox="0 0 30 30" version="1.1" xmlns:xlink="http://www.w3.org/1999/xlink" xmlns="http://www.w3.org/2000/svg">
  <defs>
    <path d="M0 0L30 0L30 30L0 30L0 0Z" id="path_1" />
    <clipPath id="mask_1">
      <use xlink:href="#path_1" />
    </clipPath>
  </defs>
  <g id="Github-icon">
    <path d="M0 0L30 0L30 30L0 30L0 0Z" id="Background" fill="none" fill-rule="evenodd" stroke="none" />
    <g clip-path="url(#mask_1)">
      <path d="M13.625 2.62485C7.87501 3.24985 3.25001 7.87485 2.62501 13.4998C2.00001 19.3748 5.37501 24.6248 10.5 26.6248C10.875 26.7499 11.25 26.4998 11.25 25.9998L11.25 23.9998C11.25 23.9998 10.75 24.1248 10.125 24.1248C8.37501 24.1248 7.62501 22.6248 7.50001 21.7499C7.37501 21.2499 7.12501 20.8748 6.75001 20.4999C6.37501 20.3748 6.25001 20.3748 6.25001 20.2499C6.25001 19.9999 6.62501 19.9999 6.75001 19.9999C7.50001 19.9999 8.12501 20.8749 8.37501 21.2499C9.00001 22.2498 9.75001 22.4999 10.125 22.4999C10.625 22.4999 11 22.3748 11.25 22.2498C11.375 21.3748 11.75 20.4999 12.5 19.9998C9.62501 19.3748 7.50001 17.7498 7.50001 14.9998C7.50001 13.6248 8.12501 12.2498 9.00001 11.2498C8.87501 10.9999 8.75001 10.3749 8.75001 9.49985C8.75001 8.99985 8.75001 8.37485 9.00001 7.87485C9.00001 7.62485 9.25001 7.49985 9.37501 7.49985C9.37501 7.49985 9.50001 7.49985 9.50001 7.49985C10.125 7.62485 11.375 7.99985 12.5 9.12485C13.25 8.87485 14.125 8.74985 15 8.74985C15.875 8.74985 16.75 8.87485 17.5 9.12485C18.625 7.99985 20 7.62485 20.625 7.49985C20.625 7.49985 20.75 7.49985 20.75 7.49985C21 7.49985 21.125 7.62485 21.25 7.87485C21.25 8.37485 21.25 8.99985 21.25 9.49985C21.25 10.4998 21.125 10.9999 21 11.2499C21.875 12.2499 22.5 13.4999 22.5 14.9998C22.5 17.7499 20.375 19.3748 17.5 19.9999C18.25 20.6248 18.75 21.7499 18.75 22.8748L18.75 26.1249C18.75 26.4998 19.125 26.8748 19.625 26.7499C24.25 24.8749 27.5 20.3748 27.5 15.1248C27.5 7.62485 21.125 1.74985 13.625 2.62485L13.625 2.62485Z" id="Shape" fill="#000000" fill-rule="evenodd" stroke="none" />
    </g>
  </g>
</svg>