<?xml version="1.0" encoding="utf-8"?>
<svg width="135px" height="135px" viewBox="0 0 135 135" version="1.1" xmlns:xlink="http://www.w3.org/1999/xlink" xmlns="http://www.w3.org/2000/svg">
  <defs>
    <path d="M0 0L135 0L135 135L0 135L0 0Z" id="path_1" />
    <clipPath id="mask_1">
      <use xlink:href="#path_1" />
    </clipPath>
  </defs>
  <g id="Pinterest-icon">
    <path d="M0 0L135 0L135 135L0 135L0 0Z" id="Background" fill="none" fill-rule="evenodd" stroke="none" />
    <g clip-path="url(#mask_1)">
      <path d="M67.5 11.25C36.434 11.25 11.2501 36.4339 11.25 67.4998C11.2499 98.5658 36.4337 123.75 67.4997 123.75C98.5657 123.75 123.75 98.5663 123.75 67.5003C123.75 36.4343 98.5662 11.2502 67.5003 11.25L67.5 11.25Z" id="Shape" fill="#D32F2F" fill-rule="evenodd" stroke="none" />
      <path d="M55.0181 75.9375C55.0181 66.5747 53.4375 63.3319 53.4375 59.6587C53.4375 51.3084 59.4309 50.625 61.965 50.625C65.5762 50.625 70.3125 53.0747 70.3125 57.6563C70.3125 64.3247 64.6875 65.1684 64.6875 65.1684C64.6875 65.1684 64.6875 67.5 64.6875 71.6062C64.6875 75.9375 65.7337 81.5625 73.4709 81.5625C85.8853 81.5625 87.1875 64.26 87.1875 59.5209C87.1875 52.9706 82.9969 39.375 68.0991 39.375C48.2288 39.375 45 57.1303 45 61.875C45 63.9056 45.3712 67.8431 45.7566 69.3759C51.6797 70.8384 50.2987 76.0556 48.6928 77.5181C46.3612 79.6725 36.5625 80.0916 36.5625 59.9766C36.5625 40.8178 53.64 30.9375 68.6306 30.9375C82.8956 30.9375 98.4375 40.7869 98.4375 59.7544C98.4375 76.68 86.2678 90.0084 73.485 90.0084C65.8125 90.0084 61.7428 83.6859 61.7428 83.6859C61.7428 95.625 52.0172 112.733 50.625 115.312C50.625 115.312 55.0181 93.2231 55.0181 75.9375L55.0181 75.9375Z" id="Shape" fill="#FFFFFF" fill-rule="evenodd" stroke="none" />
    </g>
  </g>
</svg>