<?xml version="1.0" encoding="utf-8"?>
<svg width="48px" height="48px" viewBox="0 0 48 48" version="1.1" xmlns:xlink="http://www.w3.org/1999/xlink" xmlns="http://www.w3.org/2000/svg">
  <defs>
    <path d="M0 0L48 0L48 48L0 48L0 0Z" id="path_1" />
    <clipPath id="mask_1">
      <use xlink:href="#path_1" />
    </clipPath>
  </defs>
  <g id="Twitter-icon">
    <path d="M0 0L48 0L48 48L0 48L0 0Z" id="Background" fill="none" fill-rule="evenodd" stroke="none" />
    <g clip-path="url(#mask_1)">
      <path d="M42 12.429C40.677 13.015 39.254 13.406 37.753 13.591C39.279 12.685 40.453 11.24 41.004 9.533C39.576 10.37 37.994 10.985 36.311 11.309C34.967 9.884 33.05 9 30.926 9C26.846 9 23.539 12.278 23.539 16.32C23.539 16.892 23.606 17.449 23.732 17.99C17.594 17.682 12.15 14.764 8.50801 10.336C7.86801 11.418 7.50801 12.685 7.50801 14.022C7.50801 16.563 8.80901 18.8 10.793 20.118C9.58201 20.081 8.44201 19.744 7.44401 19.204C7.44401 19.226 7.44401 19.259 7.44401 19.29C7.44401 22.841 9.99101 25.798 13.367 26.471C12.75 26.64 12.098 26.734 11.426 26.734C10.949 26.734 10.484 26.68 10.034 26.599C10.974 29.501 13.701 31.622 16.932 31.685C14.404 33.645 11.22 34.819 7.75801 34.819C7.16001 34.819 6.57501 34.785 5.99701 34.715C9.26801 36.786 13.152 38 17.321 38C30.906 38 38.338 26.844 38.338 17.166C38.338 16.849 38.328 16.533 38.313 16.221C39.763 15.197 41.013 13.905 42 12.429" id="Shape" fill="#03A9F4" fill-rule="evenodd" stroke="none" />
    </g>
  </g>
</svg>